<svg xmlns="http://www.w3.org/2000/svg" width="597.655" height="464.885" viewBox="0 0 597.655 464.885">
  <g id="logo-pode-falar" transform="translate(-584.44 -258.488)">
    <path id="Caminho_37" data-name="Caminho 37" d="M1183.071,339.777l-29.366-1.561a51.588,51.588,0,0,0-54.254,48.775l-2.341,44.049a7.435,7.435,0,0,0,.325,2.619,66.263,66.263,0,0,0,62.61,62.246q1.735.093,3.469.093a66.319,66.319,0,0,0,30.113-7.259,7.475,7.475,0,0,0,.688-12.918A51.273,51.273,0,0,1,1172,442.507l5.593.3a51.586,51.586,0,0,0,5.478-103.027Z" transform="translate(-76.941 -11.955)" fill="#ffcad0"/>
    <path id="Caminho_38" data-name="Caminho 38" d="M1101.476,594.563a66.176,66.176,0,0,0-90.073-64.612,7.476,7.476,0,0,0-2,12.781,51.277,51.277,0,0,1,18.8,35.414l-5.535-.866a51.586,51.586,0,1,0-15.957,101.931l29.054,4.549a52.25,52.25,0,0,0,8.088.632,51.612,51.612,0,0,0,50.856-43.619l6.823-43.581A7.485,7.485,0,0,0,1101.476,594.563Z" transform="translate(-56.829 -40.068)" fill="#ffcad0"/>
    <g id="Grupo_17" data-name="Grupo 17" transform="translate(585.474 258.488)">
      <path id="Caminho_39" data-name="Caminho 39" d="M651.177,455.069l-5.631-9.7a287.012,287.012,0,0,1-26.162-60.108q-10.907.617-22.516.618H585.656V363.458h11.212q8.533,0,16.686-.367a283.637,283.637,0,0,1-5.37-33.874c-.43-4.454-.724-9.232.786-14.347,1.676-5.68,5.031-9.921,8.406-13.657a131.333,131.333,0,0,1,77.449-41.689C719.913,255.7,741.209,262.6,751.787,278c7.639,11.116,9.356,26.454,4.6,41.028-1.171,3.584-8.443,22.336-36.7,39.524-20.5,12.47-46.444,20.715-77.445,24.65a264.083,264.083,0,0,0,22.7,50.915l5.63,9.7Zm56.835-174.131a65.506,65.506,0,0,0-9.8.756,110.353,110.353,0,0,0-64.188,34.553c-.921,1.02-3.077,3.406-3.54,4.975-.4,1.369-.145,4.06.028,5.84a261.806,261.806,0,0,0,5.632,34.233c29.219-3.412,53.665-10.819,71.892-21.906,18.538-11.277,25.8-23.55,27.034-27.327,2.568-7.861,1.893-16.047-1.761-21.364C728.352,283.489,718.148,280.938,708.012,280.938Z" transform="translate(-585.656 -258.488)" fill="#ffcad0"/>
    </g>
    <g id="Grupo_18" data-name="Grupo 18" transform="translate(711.777 351.512)">
      <path id="Caminho_40" data-name="Caminho 40" d="M812.33,492.091c-20.3,0-39.495-6.1-54.062-17.186-15.479-11.777-24-27.719-24-44.889s8.526-33.113,24-44.889c14.568-11.084,33.767-17.187,54.062-17.187s39.494,6.1,54.062,17.187c15.479,11.776,24,27.719,24,44.889s-8.525,33.112-24,44.889C851.824,485.987,832.625,492.091,812.33,492.091Zm0-101.727c-15.419,0-29.8,4.478-40.483,12.609-9.775,7.437-15.157,17.041-15.157,27.043s5.383,19.605,15.157,27.042c10.686,8.131,25.064,12.609,40.483,12.609s29.8-4.477,40.483-12.609c9.775-7.437,15.157-17.04,15.157-27.042s-5.383-19.606-15.157-27.043C842.126,394.842,827.749,390.364,812.33,390.364Z" transform="translate(-734.263 -367.939)" fill="#ffcad0"/>
    </g>
    <g id="Grupo_19" data-name="Grupo 19" transform="translate(883.17 310.665)">
      <path id="Caminho_41" data-name="Caminho 41" d="M985.162,468.252c-12.144,0-25.288-2.7-39.277-8.078a11.213,11.213,0,0,1-7.145-11.446c4.3-48.963,2.592-60.659.007-78.36-.86-5.892-1.836-12.571-2.732-21.328a19.385,19.385,0,0,1,6.557-16.373c4.041-3.5,8.947-3.614,12.529-3.7.319-.008.728-.018,1.083-.031,31.861-15.161,60.889-11.16,79.812,11.06,10.826,12.713,17.167,30.276,17.855,49.452.69,19.222-4.419,37.556-14.385,51.627a62.851,62.851,0,0,1-37.083,25.205A73.67,73.67,0,0,1,985.162,468.252Zm-23.348-26.279c13.333,4.091,25.192,4.934,35.339,2.5a40.2,40.2,0,0,0,24.014-16.36c14.613-20.633,13.565-55.015-2.244-73.579-12.344-14.5-31.065-16.174-54.137-4.85a16.787,16.787,0,0,1-5.976,1.55c.711,6.187,1.455,11.289,2.127,15.892C963.583,385.255,965.384,397.6,961.814,441.973Z" transform="translate(-935.921 -319.879)" fill="#ffcad0"/>
    </g>
    <g id="Grupo_20" data-name="Grupo 20" transform="translate(584.44 481.647)">
      <path id="Caminho_42" data-name="Caminho 42" d="M656.815,745.446l-8.123-7.728c-31.513-29.977-47.486-74.252-54.2-97.976-9.331-32.957-12.553-66.618-8.018-83.762a11.2,11.2,0,0,1,4.309-6.247c25.811-18.494,66.52-28.68,114.628-28.68h11.212v22.426H705.409c-40.57,0-75.927,8.007-98,22.074-1.821,13.1.422,38.98,8.661,68.08,10.519,37.153,27.593,68.348,48.08,87.836l8.124,7.729Z" transform="translate(-584.44 -521.053)" fill="#ffcad0"/>
    </g>
    <g id="Grupo_21" data-name="Grupo 21" transform="translate(848.646 499.484)">
      <path id="Caminho_43" data-name="Caminho 43" d="M1053.087,765.929l-5.758-9.621c-9.415-15.734-24.133-24.779-44.992-27.65-19.147-2.637-39.891.309-56.559,2.676-20.044,2.848-33.288,4.73-40.875-3.474-2.106-2.278-5.378-7.278-3.618-15.175,13.959-62.653-3.656-154.418-3.835-155.338l-2.149-11,22-4.3,2.153,11c.746,3.818,17.621,91.608,5,158.259,5.035-.306,12.331-1.342,18.163-2.171,35.367-5.023,94.567-13.434,123.948,35.659l5.758,9.622Z" transform="translate(-895.301 -542.04)" fill="#ffcad0"/>
    </g>
    <g id="Grupo_22" data-name="Grupo 22" transform="translate(703.491 513.664)">
      <path id="Caminho_44" data-name="Caminho 44" d="M729.706,720.9l-1.99-11.035a204.479,204.479,0,0,1,4.007-89.845c5.753-20.976,13.873-35.507,25.555-45.73,8.582-7.51,21.213-13.083,33.789-14.907,15.406-2.235,29.034,1.291,38.374,9.926,27.932,25.825,23.86,96.834,20.812,126.164l-1.159,11.154L826.788,704.3l1.158-11.152c6.626-63.763-3.255-97.7-13.729-107.381-9.993-9.237-32.47-3.1-42.17,5.39-8.22,7.193-14.161,18.247-18.7,34.785a181.939,181.939,0,0,0-3.565,79.931l1.991,11.034Z" transform="translate(-724.514 -558.724)" fill="#ffcad0"/>
    </g>
    <g id="Grupo_23" data-name="Grupo 23" transform="translate(706.049 566.58)">
      <path id="Caminho_45" data-name="Caminho 45" d="M778.357,673.142c-3.673,0-7.37-.139-11.053-.422-14.634-1.121-27.313-4.376-34.785-8.928l-5-3.044,7.087-21.941,9.577,5.834c7.838,4.777,37.148,9.422,61.52,2.686,8.55-2.364,19.767-7.131,24.652-16.418l5.22-9.924,14.628,20.363h0c-6.822,12.971-20.144,22.512-38.524,27.593A127.21,127.21,0,0,1,778.357,673.142Z" transform="translate(-727.523 -620.984)" fill="#ffcad0"/>
    </g>
    <g id="Grupo_24" data-name="Grupo 24" transform="translate(1040.85 501.469)">
      <path id="Caminho_46" data-name="Caminho 46" d="M1142.267,712.567l-20.822-8.326,4.163-10.411q.872-2.181,1.781-4.438c12.915-32.158,30.6-76.2,26.874-132.687a11.446,11.446,0,0,1,8.082-11.635c6.3-1.99,26.336.571,41.092,4.213,25.124,6.2,41.955,16.086,50.026,29.38,5.5,9.052,6.694,19.56,3.464,30.388-3.222,10.8-10.632,21.894-22.654,33.916-11.469,11.469-29.191,17.258-50.01,16.855,4.364,7.3,8.949,14.218,18.937,20.683.3.2.657.433,1.055.7,10.338,6.89,21.69,11.481,34.65-1.478l7.928-7.929,15.858,15.858-7.929,7.928c-14.616,14.615-29.586,15.795-39.568,14.209-11.136-1.769-19.715-7.486-23.378-9.929-.3-.2-.569-.379-.8-.529-15.267-9.879-21.864-21.014-27.165-29.96-1.05-1.771-2.024-3.415-2.994-4.939-4.187,12.225-8.639,23.313-12.658,33.318q-.9,2.241-1.767,4.406Zm27.062-76.762c18.007,3.185,38.146,2.245,49.086-8.7,10.311-10.31,21.57-24.816,16.653-35.364-3.585-7.692-15.716-14.879-33.281-19.718a160.022,160.022,0,0,0-24.63-4.68A263.3,263.3,0,0,1,1169.328,635.805Z" transform="translate(-1121.445 -544.376)" fill="#ffcad0"/>
    </g>
    <g id="Grupo_25" data-name="Grupo 25" transform="translate(597.289 553.64)">
      <path id="Caminho_47" data-name="Caminho 47" d="M612.381,649.487l-12.823-18.4,9.185-6.432c1.1-.772,27.458-18.9,68.382-18.9h11.213v22.425H677.125c-33.52,0-55.343,14.723-55.559,14.872Z" transform="translate(-599.558 -605.759)" fill="#ffcad0"/>
    </g>
  </g>
</svg>
